ffmpeg started on 2025-06-07 at 16:46:58
Report written to "D:\Convert\FFMetrics\reports\ssim_report-6.txt"
Log level: 32
Command line:
ffmpeg -hide_banner -nostdin -i "G:\\\xc0\xed\xe8\xec\xe5\\\xce\xed\xe3\xee\xe8\xed\xe3\xe8\\!_36_\xce\xf1\xe5\xed\xfc_2024\\DreamCast\\\xd6\xe8\xea\xeb \xe8\xf1\xf2\xee\xf0\xe8\xe9 - \xcc\xe5\xe6\xf1\xe5\xe7\xee\xed\xfc\xe5 \xe8 \xf1\xe5\xe7\xee\xed \xec\xee\xed\xf1\xf2\xf0\xee\xe2\\DC_Monogatari_Series_Off_and_Monster_Season_09_Telegram_HEVC.mkv" -i "G:\\\xc0\xed\xe8\xec\xe5\\\xce\xed\xe3\xee\xe8\xed\xe3\xe8\\!_36_\xce\xf1\xe5\xed\xfc_2024\\DreamCast\\\xd6\xe8\xea\xeb \xe8\xf1\xf2\xee\xf0\xe8\xe9 - \xcc\xe5\xe6\xf1\xe5\xe7\xee\xed\xfc\xe5 \xe8 \xf1\xe5\xe7\xee\xed \xec\xee\xed\xf1\xf2\xf0\xee\xe2\\DC_Monogatari_Series_Off_and_Monster_Season_09_Telegram.mp4" -lavfi "[0:v]settb=AVTB,setpts=PTS-STARTPTS,format=pix_fmts=yuv420p10,fps=24000/1001,scale=1920:1080:flags=bicubic[main];[1:v]settb=AVTB,setpts=PTS-STARTPTS,format=pix_fmts=yuv420p,fps=24000/1001,scale=1920:1080:flags=bicubic[ref];[main][ref]ssim=eof_action=endall:stats_file='D\\:/Convert/FFMetrics/logs/ssim_logfile-6.txt'" -f null -
Input #0, matroska,webm, from 'G:\Аниме\Онгоинги\!_36_Осень_2024\DreamCast\Цикл историй - Межсезонье и сезон монстров\DC_Monogatari_Series_Off_and_Monster_Season_09_Telegram_HEVC.mkv':
  Metadata:
    COMPATIBLE_BRANDS: isomiso2avc1mp41
    MAJOR_BRAND     : isom
    MINOR_VERSION   : 512
    ENCODER         : Lavf61.7.100
  Duration: 00:23:41.74, start: -0.021000, bitrate: 1273 kb/s
  Stream #0:0: Video: hevc (Main 10), yuv420p10le(tv, bt709, progressive), 1920x1080 [SAR 1:1 DAR 16:9], 23.98 fps, 23.98 tbr, 1k tbn (default)
      Metadata:
        HANDLER_NAME    : VideoHandler
        VENDOR_ID       : [0][0][0][0]
        ENCODER         : Lavc61.19.100 libx265
        BPS             : 1076248
        DURATION        : 00:23:41.586708333
        NUMBER_OF_FRAMES: 34084
        NUMBER_OF_BYTES : 191247426
        _STATISTICS_WRITING_APP: mkvpropedit v66.0.0 ('Josie') 64-bit
        _STATISTICS_WRITING_DATE_UTC: 2025-06-05 11:46:47
        _STATISTICS_TAGS: BPS DURATION NUMBER_OF_FRAMES NUMBER_OF_BYTES
  Stream #0:1: Audio: aac (LC), 48000 Hz, stereo, fltp (default)
      Metadata:
        HANDLER_NAME    : SoundHandler
        VENDOR_ID       : [0][0][0][0]
        ENCODER         : Lavc61.19.100 aac
        BPS             : 193611
        DURATION        : 00:23:41.738000000
        NUMBER_OF_FRAMES: 66645
        NUMBER_OF_BYTES : 34408149
        _STATISTICS_WRITING_APP: mkvpropedit v66.0.0 ('Josie') 64-bit
        _STATISTICS_WRITING_DATE_UTC: 2025-06-05 11:46:47
        _STATISTICS_TAGS: BPS DURATION NUMBER_OF_FRAMES NUMBER_OF_BYTES
Input #1, mov,mp4,m4a,3gp,3g2,mj2, from 'G:\Аниме\Онгоинги\!_36_Осень_2024\DreamCast\Цикл историй - Межсезонье и сезон монстров\DC_Monogatari_Series_Off_and_Monster_Season_09_Telegram.mp4':
  Metadata:
    major_brand     : isom
    minor_version   : 512
    compatible_brands: isomiso2avc1mp41
    encoder         : Lavf61.1.100
  Duration: 00:23:41.71, start: 0.000000, bitrate: 3134 kb/s
  Stream #1:0[0x1](und): Video: h264 (High) (avc1 / 0x31637661), yuv420p(tv, bt709, progressive), 1920x1080 [SAR 1:1 DAR 16:9], 2986 kb/s, 23.98 fps, 23.98 tbr, 24k tbn (default)
      Metadata:
        handler_name    : VideoHandler
        vendor_id       : [0][0][0][0]
        encoder         : Lavc61.3.100 h264_qsv
  Stream #1:1[0x2](und): Audio: aac (HE-AACv2) (mp4a / 0x6134706D), 48000 Hz, stereo, fltp, 144 kb/s (default)
      Metadata:
        handler_name    : SoundHandler
        vendor_id       : [0][0][0][0]
Stream mapping:
  Stream #0:0 (hevc) -> settb:default
  Stream #1:0 (h264) -> settb:default
  ssim:default -> Stream #0:0 (wrapped_avframe)
  Stream #0:1 -> #0:1 (aac (native) -> pcm_s16le (native))
Output #0, null, to 'pipe:':
  Metadata:
    COMPATIBLE_BRANDS: isomiso2avc1mp41
    MAJOR_BRAND     : isom
    MINOR_VERSION   : 512
    encoder         : Lavf61.7.100
  Stream #0:0: Video: wrapped_avframe, yuv420p10le(tv, bt709, progressive), 1920x1080 [SAR 1:1 DAR 16:9], q=2-31, 200 kb/s, 23.98 fps, 23.98 tbn
      Metadata:
        encoder         : Lavc61.19.100 wrapped_avframe
  Stream #0:1: Audio: pcm_s16le, 48000 Hz, stereo, s16, 1536 kb/s (default)
      Metadata:
        HANDLER_NAME    : SoundHandler
        VENDOR_ID       : [0][0][0][0]
        _STATISTICS_TAGS: BPS DURATION NUMBER_OF_FRAMES NUMBER_OF_BYTES
        BPS             : 193611
        DURATION        : 00:23:41.738000000
        NUMBER_OF_FRAMES: 66645
        NUMBER_OF_BYTES : 34408149
        _STATISTICS_WRITING_APP: mkvpropedit v66.0.0 ('Josie') 64-bit
        _STATISTICS_WRITING_DATE_UTC: 2025-06-05 11:46:47
        encoder         : Lavc61.19.100 pcm_s16le
frame=  170 fps=0.0 q=-0.0 size=N/A time=00:00:07.09 bitrate=N/A speed=13.9x    frame=  448 fps=433 q=-0.0 size=N/A time=00:00:18.68 bitrate=N/A speed=18.1x    frame=  696 fps=451 q=-0.0 size=N/A time=00:00:29.02 bitrate=N/A speed=18.8x    frame=  958 fps=467 q=-0.0 size=N/A time=00:00:39.95 bitrate=N/A speed=19.5x    frame= 1229 fps=477 q=-0.0 size=N/A time=00:00:51.25 bitrate=N/A speed=19.9x    frame= 1493 fps=484 q=-0.0 size=N/A time=00:01:02.27 bitrate=N/A speed=20.2x    frame= 1747 fps=485 q=-0.0 size=N/A time=00:01:12.86 bitrate=N/A speed=20.2x    frame= 1997 fps=484 q=-0.0 size=N/A time=00:01:23.29 bitrate=N/A speed=20.2x    frame= 2238 fps=483 q=-0.0 size=N/A time=00:01:33.34 bitrate=N/A speed=20.1x    frame= 2487 fps=483 q=-0.0 size=N/A time=00:01:43.72 bitrate=N/A speed=20.2x    frame= 2730 fps=481 q=-0.0 size=N/A time=00:01:53.86 bitrate=N/A speed=20.1x    frame= 3002 fps=485 q=-0.0 size=N/A time=00:02:05.20 bitrate=N/A speed=20.2x    frame= 3259 fps=486 q=-0.0 size=N/A time=00:02:15.92 bitrate=N/A speed=20.3x    frame= 3531 fps=488 q=-0.0 size=N/A time=00:02:27.27 bitrate=N/A speed=20.4x    frame= 3799 fps=491 q=-0.0 size=N/A time=00:02:38.44 bitrate=N/A speed=20.5x    frame= 4063 fps=492 q=-0.0 size=N/A time=00:02:49.46 bitrate=N/A speed=20.5x    frame= 4354 fps=496 q=-0.0 size=N/A time=00:03:01.59 bitrate=N/A speed=20.7x    frame= 4628 fps=498 q=-0.0 size=N/A time=00:03:13.02 bitrate=N/A speed=20.8x    frame= 4874 fps=497 q=-0.0 size=N/A time=00:03:23.28 bitrate=N/A speed=20.7x    frame= 5151 fps=499 q=-0.0 size=N/A time=00:03:34.83 bitrate=N/A speed=20.8x    frame= 5429 fps=501 q=-0.0 size=N/A time=00:03:46.43 bitrate=N/A speed=20.9x    frame= 5701 fps=502 q=-0.0 size=N/A time=00:03:57.77 bitrate=N/A speed=20.9x    frame= 5983 fps=504 q=-0.0 size=N/A time=00:04:09.54 bitrate=N/A speed=  21x    frame= 6267 fps=506 q=-0.0 size=N/A time=00:04:21.38 bitrate=N/A speed=21.1x    frame= 6542 fps=507 q=-0.0 size=N/A time=00:04:32.85 bitrate=N/A speed=21.1x    frame= 6806 fps=507 q=-0.0 size=N/A time=00:04:43.86 bitrate=N/A speed=21.2x    frame= 7057 fps=506 q=-0.0 size=N/A time=00:04:54.33 bitrate=N/A speed=21.1x    frame= 7307 fps=506 q=-0.0 size=N/A time=00:05:04.76 bitrate=N/A speed=21.1x    frame= 7518 fps=502 q=-0.0 size=N/A time=00:05:13.56 bitrate=N/A speed=20.9x    frame= 7790 fps=503 q=-0.0 size=N/A time=00:05:24.90 bitrate=N/A speed=  21x    frame= 8072 fps=505 q=-0.0 size=N/A time=00:05:36.66 bitrate=N/A speed=  21x    frame= 8338 fps=505 q=-0.0 size=N/A time=00:05:47.76 bitrate=N/A speed=21.1x    frame= 8600 fps=505 q=-0.0 size=N/A time=00:05:58.69 bitrate=N/A speed=21.1x    frame= 8890 fps=507 q=-0.0 size=N/A time=00:06:10.78 bitrate=N/A speed=21.1x    frame= 9080 fps=503 q=-0.0 size=N/A time=00:06:18.71 bitrate=N/A speed=  21x    frame= 9364 fps=504 q=-0.0 size=N/A time=00:06:30.55 bitrate=N/A speed=  21x    frame= 9640 fps=505 q=-0.0 size=N/A time=00:06:42.06 bitrate=N/A speed=  21x    frame= 9894 fps=504 q=-0.0 size=N/A time=00:06:52.66 bitrate=N/A speed=  21x    frame=10105 fps=502 q=-0.0 size=N/A time=00:07:01.46 bitrate=N/A speed=20.9x    frame=10391 fps=503 q=-0.0 size=N/A time=00:07:13.39 bitrate=N/A speed=  21x    frame=10666 fps=504 q=-0.0 size=N/A time=00:07:24.86 bitrate=N/A speed=  21x    frame=10919 fps=503 q=-0.0 size=N/A time=00:07:35.41 bitrate=N/A speed=  21x    frame=11165 fps=503 q=-0.0 size=N/A time=00:07:45.67 bitrate=N/A speed=  21x    frame=11439 fps=504 q=-0.0 size=N/A time=00:07:57.10 bitrate=N/A speed=  21x    frame=11726 fps=505 q=-0.0 size=N/A time=00:08:09.07 bitrate=N/A speed=  21x    frame=12009 fps=506 q=-0.0 size=N/A time=00:08:20.87 bitrate=N/A speed=21.1x    frame=12284 fps=506 q=-0.0 size=N/A time=00:08:32.34 bitrate=N/A speed=21.1x    frame=12576 fps=507 q=-0.0 size=N/A time=00:08:44.52 bitrate=N/A speed=21.2x    frame=12865 fps=509 q=-0.0 size=N/A time=00:08:56.57 bitrate=N/A speed=21.2x    frame=13124 fps=509 q=-0.0 size=N/A time=00:09:07.38 bitrate=N/A speed=21.2x    frame=13411 fps=509 q=-0.0 size=N/A time=00:09:19.35 bitrate=N/A speed=21.2x    frame=13688 fps=510 q=-0.0 size=N/A time=00:09:30.90 bitrate=N/A speed=21.3x    frame=13888 fps=508 q=-0.0 size=N/A time=00:09:39.24 bitrate=N/A speed=21.2x    frame=14129 fps=507 q=-0.0 size=N/A time=00:09:49.29 bitrate=N/A speed=21.1x    frame=14351 fps=505 q=-0.0 size=N/A time=00:09:58.55 bitrate=N/A speed=21.1x    frame=14607 fps=505 q=-0.0 size=N/A time=00:10:09.23 bitrate=N/A speed=21.1x    frame=14876 fps=506 q=-0.0 size=N/A time=00:10:20.45 bitrate=N/A speed=21.1x    frame=15156 fps=506 q=-0.0 size=N/A time=00:10:32.13 bitrate=N/A speed=21.1x    frame=15429 fps=506 q=-0.0 size=N/A time=00:10:43.51 bitrate=N/A speed=21.1x    frame=15688 fps=506 q=-0.0 size=N/A time=00:10:54.32 bitrate=N/A speed=21.1x    frame=15969 fps=507 q=-0.0 size=N/A time=00:11:06.04 bitrate=N/A speed=21.1x    frame=16245 fps=507 q=-0.0 size=N/A time=00:11:17.55 bitrate=N/A speed=21.2x    frame=16519 fps=508 q=-0.0 size=N/A time=00:11:28.97 bitrate=N/A speed=21.2x    frame=16816 fps=509 q=-0.0 size=N/A time=00:11:41.36 bitrate=N/A speed=21.2x    frame=17100 fps=509 q=-0.0 size=N/A time=00:11:53.21 bitrate=N/A speed=21.2x    frame=17371 fps=510 q=-0.0 size=N/A time=00:12:04.51 bitrate=N/A speed=21.3x    frame=17646 fps=510 q=-0.0 size=N/A time=00:12:15.98 bitrate=N/A speed=21.3x    frame=17929 fps=511 q=-0.0 size=N/A time=00:12:27.78 bitrate=N/A speed=21.3x    frame=18214 fps=511 q=-0.0 size=N/A time=00:12:39.67 bitrate=N/A speed=21.3x    frame=18490 fps=511 q=-0.0 size=N/A time=00:12:51.18 bitrate=N/A speed=21.3x    frame=18755 fps=512 q=-0.0 size=N/A time=00:13:02.23 bitrate=N/A speed=21.3x    frame=19020 fps=511 q=-0.0 size=N/A time=00:13:13.29 bitrate=N/A speed=21.3x    frame=19280 fps=511 q=-0.0 size=N/A time=00:13:24.13 bitrate=N/A speed=21.3x    frame=19538 fps=511 q=-0.0 size=N/A time=00:13:34.89 bitrate=N/A speed=21.3x    frame=19836 fps=512 q=-0.0 size=N/A time=00:13:47.32 bitrate=N/A speed=21.4x    frame=20074 fps=511 q=-0.0 size=N/A time=00:13:57.25 bitrate=N/A speed=21.3x    frame=20333 fps=511 q=-0.0 size=N/A time=00:14:08.05 bitrate=N/A speed=21.3x    frame=20617 fps=512 q=-0.0 size=N/A time=00:14:19.90 bitrate=N/A speed=21.3x    frame=20886 fps=512 q=-0.0 size=N/A time=00:14:31.12 bitrate=N/A speed=21.4x    frame=21181 fps=513 q=-0.0 size=N/A time=00:14:43.42 bitrate=N/A speed=21.4x    frame=21456 fps=513 q=-0.0 size=N/A time=00:14:54.89 bitrate=N/A speed=21.4x    frame=21733 fps=513 q=-0.0 size=N/A time=00:15:06.44 bitrate=N/A speed=21.4x    frame=21948 fps=512 q=-0.0 size=N/A time=00:15:15.41 bitrate=N/A speed=21.4x    frame=22132 fps=510 q=-0.0 size=N/A time=00:15:23.08 bitrate=N/A speed=21.3x    frame=22394 fps=510 q=-0.0 size=N/A time=00:15:34.01 bitrate=N/A speed=21.3x    frame=22690 fps=511 q=-0.0 size=N/A time=00:15:46.36 bitrate=N/A speed=21.3x    frame=22970 fps=511 q=-0.0 size=N/A time=00:15:58.04 bitrate=N/A speed=21.3x    frame=23269 fps=512 q=-0.0 size=N/A time=00:16:10.51 bitrate=N/A speed=21.4x    frame=23447 fps=510 q=-0.0 size=N/A time=00:16:17.93 bitrate=N/A speed=21.3x    frame=23593 fps=508 q=-0.0 size=N/A time=00:16:24.02 bitrate=N/A speed=21.2x    frame=23761 fps=506 q=-0.0 size=N/A time=00:16:31.03 bitrate=N/A speed=21.1x    frame=23974 fps=505 q=-0.0 size=N/A time=00:16:39.91 bitrate=N/A speed=21.1x    frame=24178 fps=504 q=-0.0 size=N/A time=00:16:48.42 bitrate=N/A speed=  21x    frame=24363 fps=502 q=-0.0 size=N/A time=00:16:56.14 bitrate=N/A speed=20.9x    frame=24591 fps=501 q=-0.0 size=N/A time=00:17:05.64 bitrate=N/A speed=20.9x    frame=24864 fps=502 q=-0.0 size=N/A time=00:17:17.03 bitrate=N/A speed=20.9x    frame=25147 fps=502 q=-0.0 size=N/A time=00:17:28.83 bitrate=N/A speed=20.9x    frame=25437 fps=503 q=-0.0 size=N/A time=00:17:40.93 bitrate=N/A speed=  21x    frame=25705 fps=503 q=-0.0 size=N/A time=00:17:52.11 bitrate=N/A speed=  21x    frame=25962 fps=503 q=-0.0 size=N/A time=00:18:02.83 bitrate=N/A speed=  21x    frame=26179 fps=502 q=-0.0 size=N/A time=00:18:11.88 bitrate=N/A speed=20.9x    frame=26420 fps=502 q=-0.0 size=N/A time=00:18:21.93 bitrate=N/A speed=20.9x    frame=26648 fps=501 q=-0.0 size=N/A time=00:18:31.44 bitrate=N/A speed=20.9x    frame=26895 fps=501 q=-0.0 size=N/A time=00:18:41.74 bitrate=N/A speed=20.9x    frame=27149 fps=501 q=-0.0 size=N/A time=00:18:52.33 bitrate=N/A speed=20.9x    frame=27395 fps=501 q=-0.0 size=N/A time=00:19:02.59 bitrate=N/A speed=20.9x    frame=27637 fps=500 q=-0.0 size=N/A time=00:19:12.69 bitrate=N/A speed=20.9x    frame=27913 fps=501 q=-0.0 size=N/A time=00:19:24.20 bitrate=N/A speed=20.9x    frame=28196 fps=501 q=-0.0 size=N/A time=00:19:36.00 bitrate=N/A speed=20.9x    frame=28455 fps=501 q=-0.0 size=N/A time=00:19:46.81 bitrate=N/A speed=20.9x    frame=28723 fps=501 q=-0.0 size=N/A time=00:19:57.98 bitrate=N/A speed=20.9x    frame=28969 fps=501 q=-0.0 size=N/A time=00:20:08.24 bitrate=N/A speed=20.9x    frame=29203 fps=501 q=-0.0 size=N/A time=00:20:18.00 bitrate=N/A speed=20.9x    frame=29430 fps=500 q=-0.0 size=N/A time=00:20:27.47 bitrate=N/A speed=20.9x    frame=29679 fps=500 q=-0.0 size=N/A time=00:20:37.86 bitrate=N/A speed=20.9x    frame=29926 fps=500 q=-0.0 size=N/A time=00:20:48.16 bitrate=N/A speed=20.8x    frame=30187 fps=500 q=-0.0 size=N/A time=00:20:59.04 bitrate=N/A speed=20.9x    frame=30437 fps=500 q=-0.0 size=N/A time=00:21:09.47 bitrate=N/A speed=20.8x    frame=30715 fps=500 q=-0.0 size=N/A time=00:21:21.07 bitrate=N/A speed=20.9x    frame=30979 fps=500 q=-0.0 size=N/A time=00:21:32.08 bitrate=N/A speed=20.9x    frame=31255 fps=500 q=-0.0 size=N/A time=00:21:43.59 bitrate=N/A speed=20.9x    frame=31511 fps=500 q=-0.0 size=N/A time=00:21:54.27 bitrate=N/A speed=20.9x    frame=31757 fps=500 q=-0.0 size=N/A time=00:22:04.53 bitrate=N/A speed=20.9x    frame=31988 fps=500 q=-0.0 size=N/A time=00:22:14.16 bitrate=N/A speed=20.9x    frame=32138 fps=498 q=-0.0 size=N/A time=00:22:20.42 bitrate=N/A speed=20.8x    frame=32283 fps=496 q=-0.0 size=N/A time=00:22:26.47 bitrate=N/A speed=20.7x    frame=32408 fps=494 q=-0.0 size=N/A time=00:22:31.68 bitrate=N/A speed=20.6x    frame=32553 fps=493 q=-0.0 size=N/A time=00:22:37.73 bitrate=N/A speed=20.6x    frame=32689 fps=491 q=-0.0 size=N/A time=00:22:43.40 bitrate=N/A speed=20.5x    frame=32823 fps=489 q=-0.0 size=N/A time=00:22:48.99 bitrate=N/A speed=20.4x    frame=32963 fps=488 q=-0.0 size=N/A time=00:22:54.83 bitrate=N/A speed=20.3x    frame=33085 fps=486 q=-0.0 size=N/A time=00:22:59.92 bitrate=N/A speed=20.3x    frame=33238 fps=484 q=-0.0 size=N/A time=00:23:06.30 bitrate=N/A speed=20.2x    frame=33411 fps=483 q=-0.0 size=N/A time=00:23:13.51 bitrate=N/A speed=20.2x    frame=33559 fps=482 q=-0.0 size=N/A time=00:23:19.68 bitrate=N/A speed=20.1x    frame=33713 fps=480 q=-0.0 size=N/A time=00:23:26.11 bitrate=N/A speed=  20x    frame=33856 fps=479 q=-0.0 size=N/A time=00:23:32.07 bitrate=N/A speed=  20x    frame=34016 fps=478 q=-0.0 size=N/A time=00:23:38.75 bitrate=N/A speed=19.9x    [Parsed_ssim_10 @ 0000028d527a9100] SSIM Y:0.994999 (23.009409) U:0.995753 (23.719685) V:0.995506 (23.473231) All:0.995209 (23.195880)
[out#0/null @ 0000028d456b2280] video:14645KiB audio:266580KiB subtitle:0KiB other streams:0KiB global headers:0KiB muxing overhead: unknown
frame=34084 fps=477 q=-0.0 Lsize=N/A time=00:23:41.58 bitrate=N/A speed=19.9x    
